<svg version="1.1" id="Layer_1" xmlns="http://www.w3.org/2000/svg" xmlns:xlink="http://www.w3.org/1999/xlink" x="0px"
	y="0px" width="100px" height="100px" viewBox="0 0 12000 12000" enable-background="new 0 0 200 200"
	xml:space="preserve" preserveAspectRatio="xMinYMin meet">
	<path fill="#FF3787" opacity="0.075000000" stroke="none" d="
M5032.000000,208.000000
	C5032.000000,252.083572 5032.000000,296.167145 5030.858398,340.899780
	C5026.778320,347.397339 5023.437988,353.081726 5020.971680,359.122620
	C5010.388672,385.048950 4994.115723,406.541168 4971.665039,423.282013
	C4940.238281,446.715973 4904.518555,457.971985 4865.707520,460.276367
	C4822.679199,462.831146 4780.728027,455.825562 4739.120117,445.866882
	C4729.493652,443.562805 4719.885742,441.183685 4711.356934,439.104309
	C4708.913086,440.662018 4707.568848,441.153900 4706.741211,442.098724
	C4533.313965,640.118225 4359.921387,838.167664 4186.548340,1036.234741
	C4183.481934,1039.738037 4180.654785,1043.451660 4177.758301,1047.100830
	C4177.364746,1047.597168 4177.170410,1048.276978 4176.977539,1048.900879
	C4176.781738,1049.534424 4176.701660,1050.203735 4176.535156,1051.038574
	C4181.023438,1064.845459 4185.400391,1078.766235 4182.691895,1093.861328
	C4179.655762,1110.785156 4171.852539,1124.952148 4160.531250,1137.815552
	C4103.308105,1202.831665 4046.312500,1268.048706 3989.414062,1333.349609
	C3984.325684,1339.189575 3977.567383,1344.084961 3975.410400,1352.338501
	C3978.823242,1358.437622 3982.250488,1364.124878 3985.266846,1370.022217
	C4010.827637,1419.994873 4012.344482,1470.841309 3990.304932,1522.356323
	C3982.352539,1540.943481 3970.128662,1556.729980 3956.879639,1571.845825
	C3887.473389,1651.034302 3818.168457,1730.312256 3748.852783,1809.580078
	C3744.510010,1814.546509 3740.372803,1819.692871 3735.790283,1825.173828
	C3739.474609,1831.343750 3742.778809,1837.021240 3746.218750,1842.615479
	C3788.813721,1911.887695 3809.505127,1987.591064 3810.498291,2068.498291
	C3810.940186,2104.482178 3806.322754,2140.230957 3797.436523,2175.325928
	C3780.445068,2242.430176 3749.500244,2302.197510 3704.072754,2354.402588
	C3658.572998,2406.690674 3612.938477,2458.861328 3567.302490,2511.030518
	C3343.142334,2767.282471 3118.958252,3023.513916 2894.810303,3279.776367
	C2890.504150,3284.699219 2886.528076,3289.910645 2882.145264,3295.297852
	C2884.109375,3299.068115 2885.387939,3302.096191 2887.152832,3304.808105
	C2893.696533,3314.860596 2900.446777,3324.778320 2907.036621,3334.801270
	C3002.584961,3480.124756 3098.087158,3625.478271 3193.667725,3770.780762
	C3273.502686,3892.145996 3353.445312,4013.440186 3433.304199,4134.789551
	C3523.417480,4271.721680 3613.502441,4408.671875 3703.575928,4545.629883
	C3740.191162,4601.304199 3776.913330,4656.908203 3813.270996,4712.750488
	C3842.679688,4757.919922 3854.528320,4807.481445 3849.010742,4861.178223
	C3844.020996,4909.739258 3825.480957,4952.321777 3793.553467,4989.254395
	C3772.280762,5013.862305 3746.173096,5032.253418 3717.916748,5047.470215
	C3669.677002,5073.448730 3617.984863,5079.571289 3564.708252,5069.001953
	C3502.948242,5056.750000 3454.441406,5023.622070 3419.428467,4971.232910
	C3394.251221,4933.560059 3369.526123,4895.585449 3344.611328,4857.737793
	C3282.322510,4763.117676 3220.016602,4668.507812 3157.761719,4573.865723
	C3059.618408,4424.663574 2961.512939,4275.437500 2863.387451,4126.224121
	C2809.199463,4043.823730 2755.011963,3961.423584 2700.810791,3879.032227
	C2657.229004,3812.783936 2613.642578,3746.538330 2570.000000,3680.329834
	C2566.771484,3675.431885 2563.077393,3670.840576 2558.550049,3664.677734
	C2500.570312,3730.026611 2444.404785,3794.907715 2387.822754,3859.417725
	C2330.704834,3924.539307 2273.632568,3989.701416 2216.731689,4055.012451
	C2160.375244,4119.697754 2103.439941,4183.885742 2046.891724,4249.791016
	C2061.422119,4262.632324 2075.031494,4274.331055 2088.281006,4286.424805
	C2161.179688,4352.962402 2187.009277,4435.208496 2165.497070,4530.826172
	C2141.201904,4638.813965 2043.668579,4713.530273 1937.980347,4716.604004
	C1874.555786,4718.448242 1818.609985,4699.945312 1769.784302,4659.650879
	C1760.534546,4652.017578 1751.630859,4643.963867 1742.598755,4636.067871
	C1663.822998,4567.202148 1585.072754,4498.307129 1506.239014,4429.507812
	C1501.406494,4425.290527 1497.466797,4419.435547 1489.318237,4418.506836
	C1352.574707,4574.857910 1215.724365,4731.324219 1078.927002,4887.837402
	C1077.696045,4889.245605 1077.167725,4891.268066 1075.937866,4893.759766
	C1080.266846,4897.862793 1084.430664,4902.055664 1088.852905,4905.955566
	C1104.349243,4919.620117 1119.886108,4933.240234 1135.495239,4946.775879
	C1176.979004,4982.747559 1202.234863,5027.649414 1209.272461,5082.248047
	C1217.977295,5149.780762 1198.947998,5208.675781 1152.726562,5258.670410
	C1127.738281,5285.698730 1097.279907,5304.147949 1062.371826,5315.525391
	C1058.070679,5316.926758 1054.079224,5319.278809 1049.944092,5321.190430
	C1050.629272,5322.126953 1051.314575,5323.063477 1052.000000,5324.000000
	C1015.916443,5324.000000 979.832825,5324.000000 943.234192,5322.926758
	C939.429871,5319.873047 936.374329,5317.153809 932.814941,5316.027344
	C901.797424,5306.215332 874.566467,5290.052246 850.431030,5268.331055
	C834.084290,5253.620117 817.364136,5239.323730 800.810120,5224.843262
	C628.745605,5074.326660 456.549805,4923.958984 284.689178,4773.209473
	C226.890076,4722.510742 202.547791,4658.221191 211.460052,4581.842285
	C217.407379,4530.873047 239.835190,4487.673340 277.203278,4452.783203
	C357.415314,4377.890625 482.864929,4375.908691 565.521240,4448.186523
	C582.073547,4462.661133 598.562378,4477.207520 615.154663,4491.635742
	C619.621033,4495.519531 624.359619,4499.090332 629.600098,4503.309082
	C634.195190,4498.321289 638.299866,4494.051270 642.200684,4489.603027
	C673.400452,4454.023438 704.579163,4418.425781 735.730957,4382.804199
	C835.314453,4268.932617 934.891602,4155.055176 1034.428467,4041.142578
	C1038.242065,4036.778320 1041.617432,4032.031006 1045.517578,4027.052979
	C1039.667114,4021.621582 1034.919434,4016.992432 1029.939575,4012.627930
	C1005.388367,3991.108887 980.761841,3969.676025 956.187073,3948.183594
	C895.493042,3895.104248 834.452820,3842.413330 774.220398,3788.814697
	C702.471741,3724.967773 674.369507,3644.459717 693.827332,3550.927490
	C727.524719,3388.946777 902.758362,3313.145020 1043.127686,3382.878418
	C1062.359619,3392.432129 1079.938721,3404.302979 1096.044189,3418.468994
	C1109.485962,3430.291504 1123.084595,3441.935547 1136.547485,3453.601562
	C1139.245972,3451.603760 1141.083618,3450.685059 1142.335815,3449.253906
	C1384.070923,3172.913086 1625.764648,2896.535645 1867.438232,2620.140869
	C1867.850830,2619.668945 1868.011841,2618.933105 1868.164551,2618.290527
	C1868.313232,2617.665039 1868.300415,2617.000977 1868.535034,2614.392578
	C1852.266479,2589.560791 1835.164795,2563.416260 1818.020020,2537.300049
	C1801.196899,2511.673584 1784.500000,2485.961426 1767.434204,2460.497070
	C1750.090454,2434.617676 1733.904785,2407.930420 1715.295532,2382.295898
	C1709.775024,2384.249756 1705.461792,2385.744873 1701.170288,2387.300049
	C1678.010010,2395.693604 1655.030518,2404.628906 1631.665283,2412.406006
	C1564.533936,2434.750244 1495.907959,2450.784668 1425.900513,2461.308838
	C1375.081787,2468.947998 1324.006348,2473.310059 1272.740601,2474.577881
	C1200.017578,2476.376709 1127.625244,2471.576660 1055.625488,2460.647705
	C984.964355,2449.922119 915.715027,2433.408447 848.104309,2410.437256
	C702.704224,2361.036621 570.767639,2287.379150 452.896179,2188.811523
	C444.917023,2182.139160 436.904755,2178.652344 426.016113,2178.511230
	C357.237701,2177.617188 302.490845,2149.038574 263.485291,2092.230225
	C209.921860,2014.219360 156.591934,1936.039429 104.055923,1857.335205
	C69.831512,1806.063599 62.542664,1749.849487 80.204926,1691.010010
	C84.290993,1677.397827 85.309387,1665.355713 79.237862,1652.649658
	C77.523422,1649.061768 76.422714,1645.174072 75.123230,1641.395508
	C51.670250,1573.201416 34.075092,1503.529663 23.585823,1432.176270
	C19.035000,1401.219116 16.010345,1370.038208 12.235280,1338.965942
	C11.837059,1335.688110 11.226754,1332.406494 10.309056,1329.244507
	C10.107304,1328.549438 7.692152,1327.675171 7.136290,1328.069092
	C5.822146,1329.000122 5.013205,1330.644165 3.999983,1332.000000
	C4.000000,1323.833374 4.000000,1315.666626 5.073068,1307.489502
	C7.602205,1306.381836 10.273731,1305.333374 10.319943,1304.179565
	C10.657391,1295.754517 10.945637,1287.262573 10.149484,1278.896606
	C9.914291,1276.425171 6.148071,1274.289551 3.999988,1272.000000
	C4.000000,1251.911621 4.000000,1231.823242 5.298557,1209.167725
	C7.822021,1205.062744 10.040142,1203.570068 10.112314,1201.980103
	C10.620119,1190.792114 10.686087,1179.584351 10.917215,1166.730469
	C14.003908,1109.795410 21.168045,1055.042603 31.807093,1000.712463
	C55.403709,880.212463 96.402039,765.956177 154.290375,657.703003
	C219.962448,534.893860 304.319794,426.503876 406.560028,332.118500
	C518.404419,228.866791 645.234558,149.015823 786.625122,92.696114
	C896.203979,49.047882 1009.809814,21.582220 1127.434082,11.225221
	C1132.579102,10.772188 1138.301880,11.732878 1142.289917,6.939857
	C1141.529175,5.963224 1140.764526,4.981624 1140.000000,4.000012
	C1208.083618,4.000000 1276.167114,4.000000 1344.806641,5.345365
	C1349.106445,11.766071 1354.857178,10.890872 1359.981323,11.318241
	C1406.502319,15.198178 1452.513550,22.503035 1498.173340,32.023582
	C1602.394043,53.754639 1702.109131,88.670593 1797.174438,136.444717
	C1890.482666,183.335892 1976.503662,241.300385 2055.173584,310.068512
	C2059.136230,313.532501 2063.190918,316.891632 2067.255859,320.344574
	C2078.427490,320.344574 2089.131836,319.609711 2099.687744,320.545074
	C2110.912109,321.539642 2122.224609,323.257721 2133.101562,326.152039
	C2179.972412,338.624115 2217.559082,364.647583 2244.976318,404.875031
	C2280.622559,457.176880 2316.165283,509.549530 2351.754883,561.890015
	C2368.987793,587.233765 2386.406494,612.453186 2403.424072,637.940674
	C2439.352539,691.751282 2447.730713,749.714600 2428.375000,811.438904
	C2424.608154,823.450867 2419.178955,834.941528 2414.290283,847.241394
	C2487.028809,1070.617188 2498.222168,1297.401978 2444.063965,1526.601562
	C2389.693115,1756.702271 2276.013672,1954.002686 2109.610840,2120.479980
	C2110.509033,2122.940430 2110.736572,2124.290039 2111.423096,2125.338867
	C2136.969238,2164.349365 2162.530029,2203.350342 2188.225586,2242.262451
	C2189.461914,2244.134521 2191.937988,2245.187744 2194.205811,2246.901123
	C2202.360107,2237.598145 2209.822510,2229.099121 2217.269531,2220.585938
	C2389.683594,2023.487061 2562.071533,1826.365601 2734.533691,1629.308838
	C2760.859863,1599.227783 2786.084961,1568.001831 2814.312256,1539.800537
	C2892.474854,1461.710938 2987.704590,1419.990723 3097.898193,1413.355347
	C3167.604004,1409.157715 3234.449707,1422.170410 3298.306396,1450.470093
	C3303.696289,1452.858887 3309.176758,1455.042725 3315.404541,1457.652588
	C3319.865723,1453.004150 3324.114014,1448.913452 3327.985107,1444.492676
	C3376.255127,1389.367432 3424.413086,1334.144287 3472.722656,1279.053467
	C3498.632324,1249.506348 3523.458008,1218.854858 3551.101562,1191.014038
	C3603.898438,1137.840088 3667.082520,1127.375488 3736.983154,1151.234009
	C3742.563477,1153.138672 3748.041260,1155.343872 3754.111816,1157.613159
	C3758.594238,1152.866577 3762.796875,1148.699829 3766.684082,1144.257202
	C3820.646973,1082.583984 3874.548340,1020.856995 3928.518799,959.190247
	C3935.536865,951.171631 3942.531006,943.086914 3950.106934,935.611267
	C3963.472412,922.423157 3979.568848,915.194336 3998.632568,915.731750
	C4007.899170,915.992981 4017.153564,916.666809 4027.468750,917.209290
	C4031.918457,912.286499 4036.870605,906.960266 4041.657959,901.489624
	C4186.005371,736.534363 4330.343262,571.570190 4474.665039,406.592926
	C4503.620605,373.493164 4532.549316,340.370117 4561.387695,307.168213
	C4566.107910,301.733765 4571.397461,296.855164 4572.392578,288.718140
	C4575.809570,260.770416 4588.520996,236.774734 4605.695312,215.002594
	C4636.635254,175.779037 4674.615723,144.727371 4717.641602,119.672379
	C4745.061523,103.704956 4774.442383,93.864288 4806.158691,90.716270
	C4871.081055,84.272476 4928.794922,101.460266 4979.168457,142.838669
	C4997.973145,158.285538 5012.429199,177.256805 5022.390137,199.571365
	C5023.979492,203.132187 5025.693359,206.776062 5028.089844,209.793777
	C5029.990234,212.186676 5031.020996,209.412842 5032.000000,208.000000
z" />
</svg>
